<?xml version="1.0" ?><!DOCTYPE svg  PUBLIC '-//W3C//DTD SVG 1.1//EN'  'http://www.w3.org/Graphics/SVG/1.1/DTD/svg11.dtd'><svg enable-background="new 0 0 489.597 524.424" height="524.424" id="レイヤー_1" overflow="visible" version="1.1" viewBox="0 0 489.597 524.424" width="489.597" xml:space="preserve" xmlns="http://www.w3.org/2000/svg" xmlns:xlink="http://www.w3.org/1999/xlink"><g id="チェック"><rect height="296.907" opacity="0.39" width="296.909" x="67.616" y="160.046"/><rect fill="#FFFFFF" height="296.907" stroke="#000000" stroke-linejoin="round" stroke-width="18" width="296.908" x="89.967" y="142.397"/><polygon fill="#A8A8A8" points="   184.954,230.665 220.563,268.911 221.911,270.359 223.259,271.807 224.607,273.255 225.955,274.703 227.303,276.151    228.651,277.599 229.999,279.046 231.347,280.494 232.695,281.942 234.043,283.39 235.391,284.838 236.739,286.286    238.087,287.734 239.435,289.182 240.783,290.629 242.131,292.077 243.479,293.525 244.59,294.718 246.312,291.935    248.033,289.151 249.753,286.368 251.476,283.584 253.197,280.801 254.919,278.017 256.64,275.234 258.361,272.45 260.083,269.667    261.804,266.883 263.525,264.1 265.248,261.316 266.968,258.532 268.69,255.749 270.412,252.966 272.132,250.182 273.854,247.399    275.576,244.615 377.82,79.284 435.654,115.05 297.436,338.55 295.109,342.313 292.783,346.076 290.455,349.839 288.128,353.602    285.8,357.365 283.474,361.127 281.147,364.89 278.82,368.651 276.423,371.982 273.942,374.71 271.408,376.971 268.841,378.848    266.257,380.399 263.667,381.662 261.082,382.668 258.503,383.438 255.939,383.99 253.394,384.337 251.58,384.467 249.309,384.491    246.964,384.358 244.549,384.049 242.066,383.544 239.519,382.821 236.913,381.851 234.256,380.599 231.559,379.019    228.835,377.053 226.102,374.615 223.38,371.728 220.659,368.806 217.938,365.884 215.217,362.962 212.497,360.039    209.776,357.117 207.055,354.195 135.186,277.002  " stroke="#000000" stroke-linecap="round" stroke-linejoin="round" stroke-width="14"/></g></svg>