<?xml version="1.0" ?><!DOCTYPE svg  PUBLIC '-//W3C//DTD SVG 1.1//EN'  'http://www.w3.org/Graphics/SVG/1.1/DTD/svg11.dtd'><svg enable-background="new 0 0 128 128" id="Слой_1" version="1.1" viewBox="0 0 128 128" xml:space="preserve" xmlns="http://www.w3.org/2000/svg" xmlns:xlink="http://www.w3.org/1999/xlink"><g><g><g><path d="M91.215,31.08c-1.488,0-3.011,0.151-4.537,0.449C81.068,23.044,71.736,18,61.574,18     c-14.627,0-26.909,10.268-29.565,24.554c-0.549-0.055-1.057-0.082-1.553-0.082C20.831,42.473,13,50.234,13,59.774     c0,9.888,7.994,18.242,17.456,18.242h4.559c0.819-0.797,1.756-1.471,2.781-2h-7.34C22.078,76.017,15,68.579,15,59.774     c0-8.438,6.934-15.302,15.456-15.302c0.676,0,1.386,0.058,2.235,0.181c0.547,0.081,1.048-0.295,1.132-0.838     C35.946,30.016,47.617,20,61.574,20c9.703,0,18.597,4.928,23.789,13.182c0.225,0.357,0.646,0.537,1.065,0.443     c1.612-0.361,3.222-0.545,4.786-0.545c12.013,0,21.785,9.704,21.785,21.631c0,11.947-9.569,21.306-21.785,21.306H73.459l-3.81,2     h21.566c13.338,0,23.785-10.237,23.785-23.306C115,41.681,104.33,31.08,91.215,31.08z" fill="#323638"/></g></g><g><g><path d="M84.913,71.943c-4.184,0-7.587-3.403-7.587-7.587c0-4.183,3.403-7.586,7.587-7.586     s7.587,3.403,7.587,7.586C92.5,68.54,89.097,71.943,84.913,71.943z M84.913,58.77c-3.081,0-5.587,2.506-5.587,5.586     s2.506,5.587,5.587,5.587s5.587-2.506,5.587-5.587S87.994,58.77,84.913,58.77z" fill="#323638"/></g><g><path d="M79.059,110c-4.184,0-7.587-3.403-7.587-7.587c0-4.183,3.403-7.586,7.587-7.586s7.587,3.403,7.587,7.586     C86.646,106.597,83.242,110,79.059,110z M79.059,96.827c-3.081,0-5.587,2.506-5.587,5.586S75.978,108,79.059,108     s5.587-2.506,5.587-5.587S82.14,96.827,79.059,96.827z" fill="#323638"/></g><g><path d="M43.087,93.899c-4.184,0-7.587-3.403-7.587-7.586c0-4.184,3.403-7.587,7.587-7.587     s7.587,3.403,7.587,7.587C50.674,90.496,47.271,93.899,43.087,93.899z M43.087,80.726c-3.081,0-5.587,2.506-5.587,5.587     s2.506,5.586,5.587,5.586s5.587-2.506,5.587-5.586S46.168,80.726,43.087,80.726z" fill="#323638"/></g><g><path d="M48.918,84.252c-0.36,0-0.708-0.194-0.887-0.535c-0.257-0.489-0.068-1.094,0.421-1.35l30.166-15.835     c0.49-0.259,1.095-0.068,1.351,0.42c0.257,0.489,0.068,1.094-0.421,1.35L49.382,84.137     C49.233,84.215,49.074,84.252,48.918,84.252z" fill="#323638"/></g><g><path d="M72.917,101.038c-0.132,0-0.266-0.026-0.394-0.081L48.345,90.602c-0.508-0.218-0.743-0.806-0.525-1.313     c0.217-0.508,0.809-0.741,1.312-0.526l24.179,10.355c0.508,0.218,0.743,0.806,0.525,1.313     C73.674,100.811,73.305,101.038,72.917,101.038z" fill="#323638"/></g></g></g></svg>